<svg width="475" height="483" viewBox="0 0 475 483" fill="none" xmlns="http://www.w3.org/2000/svg">
<g clip-path="url(#clip0_156_328)">
<path d="M231 33.0001V52.0001C229.621 52.1101 228.241 52.2191 226.82 52.3321C202.722 54.3241 178.789 57.7851 157 69.0001C155.741 69.6041 154.48 70.2061 153.219 70.8051C122.631 85.4761 99.2321 108.453 80.0001 136C79.6701 136.461 79.6701 136.461 78.0001 138.797C64.3031 158.947 56.7501 182.347 52.0001 206C51.8301 206.774 51.6611 207.547 51.4861 208.344C46.1511 237.48 48.9451 270.356 59.2441 297.947C59.9661 299.907 60.6381 301.878 61.2971 303.859C69.8251 328.872 84.5301 351.357 102 371C102.311 371.366 102.311 371.366 103.887 373.219C112.596 383.451 122.292 391.966 133 400C133.562 400.428 134.124 400.856 134.703 401.297C147.366 410.909 161.28 418.964 176 425C176.649 425.269 177.298 425.538 177.967 425.815C219.953 443.112 266.039 444.101 308.207 426.722C327.926 418.347 345.393 407.745 360.999 393C362.349 391.849 363.703 390.703 365.061 389.562C392.393 365.627 412.072 327.865 416.999 292C417.079 289.388 417.116 286.806 417.097 284.195C417.095 283.471 417.094 282.747 417.092 282.001C417.087 279.709 417.074 277.417 417.061 275.125C417.056 273.563 417.052 272 417.048 270.438C416.975 245.199 407.509 221.743 389.655 203.621C371.377 186.529 353.387 184 327.999 184C298.323 189.935 278.285 204.249 256.999 224C254.36 226.366 251.682 228.684 248.999 231C248.068 231.821 247.138 232.642 246.179 233.488C232.709 245.246 217.499 258 198.999 258L196.999 257C196.999 245.606 206.006 239.956 213.795 232.152C216.397 229.545 218.998 226.937 221.597 224.327C224.11 221.802 226.626 219.28 229.144 216.76C230.559 215.342 231.972 213.922 233.384 212.502C242.678 203.207 252.574 194.976 262.999 187C263.821 186.37 264.644 185.739 265.491 185.09C291.031 166.399 321.881 156.511 353.561 160.688C377.205 164.798 400.337 177.718 414.999 197C415.722 197.95 416.445 198.9 417.19 199.879C433.885 222.9 439.455 247.424 439.124 275.5C439.114 277.017 439.105 278.534 439.097 280.051C439.049 288.122 438.099 294.895 436.249 302.75C435.996 303.842 435.744 304.934 435.483 306.059C430.834 325.701 423.357 343.725 412.999 361C412.447 361.94 411.896 362.879 411.327 363.848C393.742 392.706 368.414 417.4 338.999 434C338.315 434.389 337.632 434.778 336.927 435.179C324.719 442.054 312.234 447.429 298.999 452C298.637 452.128 298.637 452.128 296.806 452.777C261.608 465.072 219.91 463.083 185.086 450.73C182.921 449.972 180.741 449.269 178.557 448.566C139.692 435.621 102.462 407.754 77.9971 375C77.6001 374.468 77.2021 373.937 76.7931 373.389C62.6701 354.373 50.6391 333.608 42.7731 311.209C42.2571 309.739 41.7291 308.272 41.1891 306.81C35.9541 292.552 33.8741 278.024 31.9971 263C31.8201 261.722 31.6441 260.444 31.4621 259.128C30.9571 255.066 30.8201 251.024 30.7941 246.934C30.7871 246.186 30.7801 245.438 30.7731 244.667C30.7551 242.257 30.7491 239.848 30.7471 237.438C30.7461 236.612 30.7461 235.787 30.7451 234.937C30.7711 214.566 33.1131 195.532 38.9971 176C39.2011 175.286 39.4061 174.573 39.6161 173.837C45.7461 152.535 56.0581 132.915 68.9971 115C69.7321 113.942 70.4671 112.883 71.2241 111.793C99.7651 71.8671 145.565 43.6211 193.824 35.3581C194.539 35.2401 195.255 35.1221 195.992 35.0001C196.332 34.9421 196.332 34.9421 198.055 34.6491C209.103 32.8351 219.819 32.8361 230.992 33.0001H231Z" fill="#052F76"/>
<path d="M383 287C395.559 301.129 396 306.458 396 326C383.104 365.01 355.651 394.402 319 413C306.252 419.217 293.028 423.899 279.25 427.25C278.589 427.413 277.929 427.577 277.248 427.745C265.258 430.516 253.037 430.125 240.812 430.062C239.08 430.057 237.348 430.053 235.615 430.049C228.833 430.031 222.525 429.911 215.855 428.59C215.188 428.459 214.52 428.328 213.832 428.193C200.809 425.607 187.98 421.764 176 416C175.414 415.723 175.414 415.723 172.449 414.32C158.168 407.452 144.934 399.493 133 389C132.609 388.664 132.609 388.664 130.633 386.965C128.04 384.691 125.515 382.36 123 380C122.448 379.488 121.897 378.975 121.328 378.447C107.935 365.913 97.227 351.838 88 336C91.558 337.737 94.841 339.756 98.188 341.875C105.807 346.625 113.588 349.941 122 353C122.461 353.594 122.923 354.189 123.398 354.801C148.453 386.639 185.34 409.72 225.998 415L235.998 421C241.998 420 241.998 420 248.998 416C249.798 415.875 250.598 415.749 251.422 415.62C288.191 409.786 323.651 397.622 347.123 366.812C355.071 355.523 360.998 344.114 360.998 330C357.59 318.639 354.302 313.888 343.998 308C330.939 304.735 321.141 307.633 309.998 314C312.72 301.753 317.622 295.204 326.998 287C346.081 276.138 362.686 274.813 382.998 287H383Z" fill="#BE8612"/>
<path d="M245 33C278.655 31.948 310.533 41.076 340 57C340.609 57.325 341.218 57.649 341.846 57.984C379.904 78.389 411.905 114.951 428 155C428.268 155.658 428.535 156.316 428.811 156.995C438.163 180.088 442.207 201.08 442 226L440 229C439.743 228.187 439.487 227.373 439.223 226.535C434.397 212.092 427.473 198.951 418 187C417.648 185.875 417.296 184.749 416.934 183.59C403.044 140.041 374.6 103.508 336 79C335.013 78.371 334.025 77.742 333.008 77.094C319.014 68.566 304.08 63.004 288.345 58.651C286.465 58.129 284.596 57.566 282.731 56.99C278.793 55.945 274.917 55.37 270.879 54.93C270.134 54.844 269.389 54.758 268.622 54.669C266.269 54.399 263.916 54.137 261.562 53.875C259.956 53.692 258.35 53.508 256.744 53.324C252.83 52.876 248.915 52.438 245 52V33Z" fill="#BE8612"/>
<path d="M160.17 230.99C162.481 232.267 164.736 233.643 167 235.001L179 238.001C174.81 246.381 171.885 247.559 163 252.001C151 252.001 151 252.001 140 249.001C128.488 249.001 121.145 250.685 112 258.001C104 270.573 104 270.573 104 289.001C108.556 301.53 112.947 307.975 125 314.001C137.79 317.199 150.198 315.059 162 310.001H165V334.001C145.33 343.836 129.979 343.558 109 337.001C86.925 324.124 75.144 309.607 68 285.001C68 264.071 69.145 253.937 81 237.001C104.625 213.376 133.561 217.056 160.17 230.99Z" fill="#042D75"/>
<path d="M239 276H295C295 359.848 295 359.848 280 375C276.467 378.187 272.772 381.103 269 384C268.005 384.799 267.01 385.598 265.984 386.422C243.946 404 243.946 404 239 404V276Z" fill="#063078"/>
<path d="M305 265H307L308 306H312L311 313L319 308C329.453 305.013 337.853 305.195 348 309C359.951 319.756 359.951 319.756 362 330C362 349.795 350.308 365.192 337.266 378.867C317.547 398.523 287.073 414.237 258.789 415.098C257.745 415.086 256.701 415.074 255.625 415.062C254.565 415.053 253.506 415.044 252.414 415.035C251.617 415.024 250.821 415.012 250 415C250 412 250 412 251 409C251.597 408.646 252.194 408.291 252.809 407.926C271.278 396.592 294.088 380.823 304 361L305 265Z" fill="#F9F9F9"/>
<path d="M136 163C143.753 168.815 147.416 173.04 151 182C151 194.182 148.81 200.628 141 210C129 216 129 216 115 216C102.854 209.927 99.053 206.633 94 194C94 181 94 181 98 172C109.958 160.042 119.487 157.496 136 163Z" fill="#032D75"/>
<path d="M366 220C375.591 224.795 379.29 227.864 385 237C387.533 247.131 385.755 253.611 382 263C377.33 268.837 372.284 272.572 365 275C348.114 275 348.114 275 341.75 268.812C332.638 259.493 332 252.653 332 239C341.106 222.609 347.642 220 366 220Z" fill="#BD8510"/>
<path d="M182 326C184.86 328.86 187.69 331.693 190.453 334.637C191.068 335.292 191.683 335.946 192.316 336.621C192.954 337.303 193.593 337.985 194.25 338.688C194.914 339.396 195.578 340.105 196.262 340.836C201.242 346.165 206.166 351.538 211 357C211.553 357.624 212.106 358.248 212.676 358.891C218.011 364.952 223.243 371.103 228.493 377.239C230.993 380.161 233.497 383.08 236 386V402C229.959 400.49 226.879 395.974 223.125 391.188C219.131 386.238 214.88 381.61 210.5 377C205.515 371.75 200.784 366.418 196.273 360.75C191.755 355.285 186.843 350.177 182 345V326Z" fill="#A51C1C"/>
<path d="M182 308C188.714 313.595 188.714 313.595 191.25 316.625C194.058 319.921 196.941 323.128 199.875 326.312C203.237 329.99 206.447 333.737 209.562 337.625C213.091 341.999 216.852 345.957 220.871 349.879C224.1 353.096 227.049 356.53 230 360C231.98 362.31 233.96 364.62 236 367V386C230.365 380.365 230.365 380.365 228.133 377.949C227.643 377.42 227.154 376.89 226.65 376.345C226.147 375.798 225.643 375.251 225.125 374.688C224.86 374.4 224.86 374.4 223.52 372.946C220.196 369.328 216.922 365.673 213.707 361.957C211.664 359.614 209.583 357.307 207.5 355C204.83 352.041 202.177 349.071 199.562 346.062C195.893 341.845 192.115 337.729 188.332 333.613C179.578 323.803 182 325.334 182 308Z" fill="#BE840F"/>
<path d="M182 290C186.483 293.66 190.379 297.407 194.129 301.809C196.153 304.179 198.225 306.498 200.312 308.812C201.069 309.652 201.826 310.491 202.605 311.355C205.106 314.117 207.615 316.871 210.125 319.625C213.532 323.368 216.896 327.143 220.215 330.965C223.035 334.18 225.914 337.342 228.789 340.508C238.198 351.113 236 348.932 236 367C231 363 231 363 229.785 361.602C223.249 354.102 216.577 346.727 209.875 339.375C206.465 335.629 203.1 331.851 199.777 328.027C197.706 325.665 195.605 323.332 193.5 321C182 308.257 182 308.257 182 290Z" fill="#A41C1B"/>
<path d="M171 267H304V356H301V271H176V329H175L174 275H172V329H171V267Z" fill="#032C72"/>
<path d="M201 292C215.237 307.158 215.237 307.158 220.355 313.105C223.116 316.285 225.958 319.391 228.789 322.508C238.198 333.113 236 330.932 236 349C231 345 231 345 229.785 343.602C226.389 339.705 222.963 335.838 219.5 332C216.81 329.019 214.137 326.028 211.5 323C204.133 314.549 196.548 306.289 189 298L188 295C195 292 195 292 201 292Z" fill="#BD840F"/>
<path d="M188 277H204C215.883 289.8 215.883 289.8 221.141 295.891C224.123 299.274 227.196 302.577 230.27 305.877C238.511 314.785 236 314.648 236 331L231 326C230.343 325.354 229.685 324.708 229.008 324.043C225.115 320.206 221.413 316.275 217.848 312.133C215.763 309.726 213.635 307.362 211.5 305C208.245 301.394 205.03 297.757 201.84 294.094C198.266 290.027 194.63 286.017 191 282C190.01 280.35 189.02 278.7 188 277Z" fill="#A41C1C"/>
<path d="M237 88L238 90H240V92C244 94 244 94 262 95C258.823 98.177 256.216 100.741 252.688 103.312C251.99 103.824 251.293 104.336 250.574 104.863C250.055 105.238 249.535 105.614 249 106C250.039 112.111 251.157 118.077 253 124C246 120 246 120 240 115C235 116 235 116 224 124L222 123L227 108L226 101C227.98 98.69 229.96 96.38 232 94H234V92H236L237 88Z" fill="#BE8817"/>
<path d="M176 271H300V356H299V273H226L225 276H218V274L186 273V276C182.765 275.281 180.161 274.264 177 273V357H176V271Z" fill="#C4C8DA"/>
<path d="M171 265H305V350H304V267H171V265Z" fill="#113174"/>
<path d="M300 271H301V354H300V271Z" fill="#113174"/>
<path d="M219 289C219.547 289.082 219.547 289.082 222.312 289.5C226 290 226 290 229 290V294H237V403L235 402V313C223 299 223 299 217 293V291H219V289Z" fill="#C48E43"/>
<path d="M194 357C198.333 361.794 202.661 366.593 206.938 371.438C207.483 372.055 208.028 372.672 208.59 373.309C210 375 210 375 212 378L207 381C197.53 376.265 189.038 370.095 185 360V358C190 356 190 356 194 357Z" fill="#BE8613"/>
<path d="M204 277H220C234 292 234 292 234 294H229L227 290L223 291H219C218.01 291.33 217.02 291.66 216 292C211.667 287.192 207.668 282.335 204 277Z" fill="#BD830F"/>
<path d="M172 275H174C177.066 281.133 175.044 291.766 175.055 298.545C175.06 300.979 175.067 303.413 175.075 305.847C175.127 320.6 174.938 335.274 174 350H172C170.928 333.529 171.051 317.182 171.438 300.688C171.491 298.182 171.544 295.676 171.596 293.17C171.723 287.113 171.858 281.056 172 275Z" fill="#012D75"/>
<path d="M311 94C313 96 313 96 314 101C316.97 101.33 319.94 101.66 323 102L318 107V116L313 113C308 114 308 114 304 116C304.486 112.877 304.999 110.004 306 107C305.381 106.691 304.762 106.381 304.125 106.062C302.75 105.375 301.375 104.688 300 104V102H308L310 95L311 94Z" fill="#C4912A"/>
<path d="M163 94H165C167 99 167 99 167 102H176L171 107H169L171 112L170 116L166 113C161 114 161 114 157 116L159 107L153 104V102L161 101L163 94Z" fill="#C49027"/>
<path d="M182 277H188C199 289 199 289 200 292L193 294L192 295H187L182 290V277Z" fill="#BC820F"/>
<path d="M169 265H171V358C153.8 332.2 169 296.007 169 265Z" fill="#C8CDDD"/>
<path d="M181 354C182.751 356.626 184.387 359.288 186 362C190.601 367.536 195.464 372.399 201 377L202 379H199C199.99 380.32 200.98 381.64 202 383C195.958 383 188.98 373.924 184.645 369.711C177 362.051 177 362.051 177 357H181V354Z" fill="#EEEAE7"/>
<path d="M287 374L291 375C291 379.863 289.686 380.493 286.422 383.777C273.104 396 273.104 396 266 396C268 390 268 390 269.617 388.785C275.693 384.15 281.379 379.175 287 374Z" fill="#0D3075"/>
<path d="M187 372C187.907 372.784 188.815 373.567 189.75 374.375C194.192 378.19 198.712 381.909 203.23 385.633C205.609 387.666 207.829 389.751 210 392H207L205 395C184.64 379.279 184.64 379.279 182 374H187V372Z" fill="#103478"/>
<path d="M348 126C350 129 350 129 351 133H359L354 138L355 146L351 144L347 143L342 146L343 138L338 133H346L347 128L348 126Z" fill="#C18D25"/>
<path d="M294 355L296 359L298 360C294.484 368.79 286.748 375.447 280 382C278.02 381.34 276.04 380.68 274 380C278 375 278 375 279.539 373.715C286.1 368.124 291.218 363.346 294 355Z" fill="#E9EBF1"/>
<path d="M273 380L278 381C275.792 385.415 273.129 387.282 269.375 390.25C268.758 390.741 268.14 391.232 267.504 391.738C257.039 400 257.039 400 252 400C253.798 391.012 265.765 385.426 273 380Z" fill="#F0F1F5"/>
<path d="M220 277H236V295C230.375 289.375 230.375 289.375 228.105 286.887C227.625 286.361 227.145 285.836 226.65 285.295C226.168 284.764 225.685 284.234 225.188 283.688C224.685 283.138 224.183 282.588 223.666 282.021C220 278.006 220 278.006 220 277Z" fill="#A41B1C"/>
<path d="M251 410L250 414L256 415V416C253.03 416.66 250.06 417.32 247 418L240 422C234 421 234 421 226 416L228 415L229 411L237 416C242.163 414.709 245.85 410 251 410Z" fill="#F0EEEC"/>
<path d="M199 379C204.693 379 205.715 380.409 209.75 383.75C210.289 384.193 210.828 384.637 211.383 385.094C214.406 387.6 217.276 390.171 220 393H218L219 397H221L220 399C201.105 385.315 201.105 385.315 199 379Z" fill="#EFEEEE"/>
<path d="M251 396L252 400C252.99 400.33 253.98 400.66 255 401C240 410 240 410 235 409L232 406H235L234 402H238V404L251 396Z" fill="#EAEBF0"/>
<path d="M51.0002 206L53.0002 208C52.9292 208.607 52.8592 209.214 52.7862 209.84C52.1272 215.877 51.8532 221.813 51.8672 227.883C51.8662 228.782 51.8652 229.681 51.8642 230.607C51.8642 232.491 51.8652 234.375 51.8702 236.259C51.8752 239.125 51.8702 241.99 51.8632 244.855C51.8642 246.698 51.8652 248.54 51.8672 250.383C51.8652 251.229 51.8632 252.075 51.8612 252.947C51.8812 258.051 52.2692 262.947 53.0002 268L51.0002 269C49.3182 260.589 48.9672 253.626 48.9452 245.243C48.9402 243.689 48.9332 242.136 48.9252 240.583C48.7902 216.041 48.7902 216.041 51.0002 206Z" fill="#DFE2EC"/>
<path d="M171 356H173L174 359H178L183 367L187 371V374H181C171 362.571 171 362.571 171 356Z" fill="#0E3378"/>
<path d="M210 378C218.51 382.255 224.769 389.538 229 398C225.037 396.236 221.627 393.711 218.125 391.188C217.526 390.761 216.926 390.335 216.309 389.896C212.391 387.088 208.67 384.125 205 381L209 379L210 378Z" fill="#C0881A"/>
<path d="M186 273H222L218 274V276H186V273Z" fill="#FDFCFC"/>
<path d="M124 132L125 134H123L125 139L130 140C131 135 131 135 130 133H138L134 137H132L134 146L130 144L125 143L122 146H120L121 138L116 133L124 132Z" fill="#C39435"/>
<path d="M267 391L268 394L267 395L270 397C259 405 259 405 250 404C253 401 253 401 255.047 399.574C255.939 398.952 256.831 398.329 257.75 397.688C258.632 397.073 259.513 396.458 260.422 395.824C262.644 394.252 264.832 392.646 267 391Z" fill="#13387B"/>
<path d="M206 391C213 393 213 393 222 400L221 404C216 403 216 403 206 396V391Z" fill="#0C3176"/>
<path d="M164 309C167 310 167 310 169 312C169 330.333 169 330.333 164 337C161.69 337.33 159.38 337.66 157 338C161 335 161 335 165 334L164 309Z" fill="#DDE0EA"/>
<path d="M175 329H176L177 358L173 360V356H171V335H172V350H174V330L175 329Z" fill="#032B72"/>
<path d="M218 393C223 394 223 394 234 402L235 406C228 405 228 405 221 400V397H219L218 393Z" fill="#F3F2F3"/>
<path d="M214 95H232L227 101L226 105L214 97V95Z" fill="#C08C1F"/>
<path d="M222 400C222.385 400.247 222.385 400.247 224.336 401.496C225.339 402.137 226.342 402.777 227.375 403.438C228.373 404.076 229.37 404.714 230.398 405.371C233 407 233 407 235 408L234 411C227 411 227 411 218 405L221 403L222 400Z" fill="#12377A"/>
<path d="M182 345C188 350 188 350 192 356L186 359L184 361C182 357 182 357 182 345Z" fill="#BC8413"/>
<path d="M181 277H182V354H181V277Z" fill="#E1C9BA"/>
<path d="M257 404C256 407 256 407 246 413L242 412V408C248 404 248 404 257 404Z" fill="#092E73"/>
<path d="M295 365H301C300 369 300 369 293 377L288 374C288.978 372.687 289.958 371.374 290.938 370.062C291.483 369.332 292.028 368.601 292.59 367.848C294 366 294 366 295 365Z" fill="#103174"/>
<path d="M237 78L239 79L243 91L242 93L240 92V90C239.01 89.67 238.02 89.34 237 89L236 92H234V94L232 93C232.644 90.874 233.29 88.749 233.938 86.625C234.117 86.033 234.117 86.033 235.027 83.039C236 80 236 80 237 78Z" fill="#C38F26"/>
<path d="M182 276H237V294H236V277H182V276Z" fill="#C58F46"/>
<path d="M196 250L198 251L197 257L205 258C201 260 201 260 187 260C193.027 252.902 193.027 252.902 196 250Z" fill="#1C3E80"/>
<path d="M126 126H128L130 133L132 135L130 141L129 139H125L124 141L123 134H125L126 126Z" fill="#BD8717"/>
<path d="M242 409L244 414L240 417C235 416 235 416 229 412C234.231 409.384 235.385 409 242 409Z" fill="#17397B"/>
<path d="M441 201H442C443.963 213.392 444.238 225.473 444 238C439.468 231.203 440.878 220.853 440.938 212.938C440.942 211.786 440.947 210.634 440.951 209.447C440.963 206.631 440.979 203.816 441 201Z" fill="#C69639"/>
<path d="M304 350H305C305 361 305 361 302 367L301 365H296L300 354L301 356H304V350Z" fill="#133679"/>
<path d="M141 210V212C138 214 138 214 135 214L134 219L137 221L116 220V219L128 218L118 217V216L129 215C139 210 139 210 141 210Z" fill="#D2D5E3"/>
<path d="M220 406L227 410L228 415C214 414 214 414 208 412V411H216V413L221 411L220 406Z" fill="#F1ECE3"/>
</g>
<defs>
<clipPath id="clip0_156_328">
<rect width="475" height="483" fill="white"/>
</clipPath>
</defs>
</svg>
